<svg xmlns="http://www.w3.org/2000/svg" viewBox="0 0 16.933333 16.933334" height="64" width="64"><g><ellipse style="fill:#000000;stroke:#000000;stroke-width:0.853401" ry="3.2693121" rx="5.1027932" cy="3.2296562" cx="7.8790069" transform="matrix(0.79455694,0.60718965,-0.4727475,0.88119794,0,0)" /><ellipse transform="matrix(-0.79455694,0.60718965,0.4727475,0.88119794,0,0)" cx="-7.2752166" cy="13.631969" rx="5.1027932" ry="3.2693121" style="fill:#000000;stroke:#000000;stroke-width:0.853401" /><ellipse style="fill:#000000;stroke:#000000;stroke-width:0.5978" ry="2.3310726" rx="3.5116208" cy="13.508868" cx="0.086950459" transform="matrix(-0.76770872,0.64079897,0.44086021,0.89757578,0,0)" /><ellipse transform="matrix(0.76770872,0.64079897,-0.44086021,0.89757578,0,0)" cx="15.673847" cy="2.264046" rx="3.5116208" ry="2.3310726" style="fill:#000000;stroke:#000000;stroke-width:0.5978" /><path style="fill:none;stroke:#000000;stroke-width:1.15852;stroke-linecap:butt;stroke-linejoin:miter;stroke-miterlimit:4;stroke-dasharray:none;stroke-opacity:1" d="M 8.0942049,7.45499 C 8.257266,9.546533 8.0766903,4.9287556 7.3940756,3.6041987 6.0596545,1.0145908 3.963365,1.6437964 3.963365,1.6437964" /><path d="M 8.7077069,7.525005 C 8.5446458,9.616546 8.7253967,4.9987703 9.4078537,3.6742134 10.742274,1.0846037 12.838564,1.7138111 12.838564,1.7138111" style="fill:none;stroke:#000000;stroke-width:1.15852;stroke-linecap:butt;stroke-linejoin:miter;stroke-miterlimit:4;stroke-dasharray:none;stroke-opacity:1" /></g></svg>