<svg xmlns="http://www.w3.org/2000/svg" x="0px" y="0px" viewBox="0 0 64 64" width="64" height="64"><g style="stroke-width:0.99982667;stroke-miterlimit:4;stroke-dasharray:none;fill:#f9528a;fill-opacity:1" transform="matrix(2.0873618,0,0,2.0873618,28.605,31.474638)"><path style="fill:none;stroke:#000000;stroke-width:0.99982667;stroke-linecap:butt;stroke-linejoin:miter;stroke-miterlimit:4;stroke-dasharray:none;stroke-opacity:1;fill-opacity:1" d="M 8.0942049,7.45499 C 8.257266,9.546533 8.0766903,4.9287556 7.3940756,3.6041987 6.0596545,1.0145908 3.963365,1.6437964 3.963365,1.6437964"/><path d="M 8.7077069,7.525005 C 8.5446458,9.616546 8.7253967,4.9987703 9.4078537,3.6742134 10.742274,1.0846037 12.838564,1.7138111 12.838564,1.7138111" style="fill:none;stroke:#000000;stroke-width:0.99982667;stroke-linecap:butt;stroke-linejoin:miter;stroke-miterlimit:4;stroke-dasharray:none;stroke-opacity:1;fill-opacity:1"/></g><g><ellipse transform="matrix(1.6585278,1.2674245,-0.98679507,1.8393789,28.605,31.474638)" cx="7.8790069" cy="3.2296562" rx="5.1027932" ry="3.2693121" style="stroke-width:1.0062829;stroke-miterlimit:4;stroke-dasharray:none;fill:#f9528a;fill-opacity:1;stroke:#f9528a;stroke-opacity:1" /><ellipse style="stroke-width:1.00628;stroke-miterlimit:4;stroke-dasharray:none;fill:#f9528a;fill-opacity:1;stroke:#f9528a;stroke-opacity:1" ry="3.2693121" rx="5.1027932" cy="13.631969" cx="-7.2752166" transform="matrix(-1.6585278,1.2674245,0.98679507,1.8393789,28.605,31.474638)"/><ellipse transform="matrix(-1.6024859,1.3375793,0.92023476,1.8735654,28.605,31.474638)" cx="0.086950459" cy="13.508868" rx="3.5116208" ry="2.3310726" style="stroke-width:1.01434465;stroke-miterlimit:4;stroke-dasharray:none;fill:#f9528a;fill-opacity:1;stroke:#f9528a;stroke-opacity:1"/><ellipse style="stroke-width:1.01434465;stroke-miterlimit:4;stroke-dasharray:none;fill:#f9528a;fill-opacity:1;stroke:#f9528a;stroke-opacity:1" ry="2.3310726" rx="3.5116208" cy="2.264046" cx="15.673847" transform="matrix(1.6024859,1.3375793,-0.92023476,1.8735654,28.605,31.474638)"/><path style="fill:#91a6a9;stroke:#000000;stroke-width:2;stroke-linecap:butt;stroke-linejoin:round;stroke-miterlimit:4;stroke-dasharray:none;stroke-opacity:1;fill-opacity:1" d="M 1.2541214,62.664231 16.093625,47.828265 16.9775,48.711888 48.794883,16.902212 43.492007,11.600599 11.674624,43.410275 12.558374,44.293898 1.2541214,55.595372 Z"/></g><path d="M 16.093625,47.828265 12.558374,44.293898 Z" style="fill:none;stroke:#000000;stroke-width:2;stroke-linecap:butt;stroke-linejoin:miter;stroke-opacity:1;stroke-miterlimit:4;stroke-dasharray:none" /><path d="m 14.326,40.759532 c 0,0 -15.4528674,-28.82906 -13.0718786,-39.4997838 C 17.842264,-1.0340199 40.840506,14.251468 40.840506,14.251468 Z" style="fill:#e3fbff;stroke:#000000;stroke-width:2;stroke-linecap:butt;stroke-linejoin:miter;stroke-miterlimit:4;stroke-dasharray:none;stroke-opacity:1;fill-opacity:1"/></svg>